<?xml version="1.0" encoding="UTF-8"?>
<svg id="Layer_2" data-name="Layer 2" xmlns="http://www.w3.org/2000/svg" viewBox="0 0 303.51 85.68">
  <defs>
    <style>
      .cls-1 {
        fill: #fff;
      }

      .cls-2 {
        fill: #29abe2;
      }
    </style>
  </defs>
  <g id="Layer_1-2" data-name="Layer 1">
    <path class="cls-2" d="m0,21.38C49.42,8.09,100.53,1.35,151.68.3c12.82-.23,25.66-.44,38.51-.16,25.71.57,51.3,4.29,76.28,10.3,12.48,3.06,24.83,6.68,36.82,11.41,0,0-.3,1.27-.3,1.27-12.81-1.07-25.43-2.45-38.05-3.61-25.18-2.47-50.29-4.22-75.46-6.51-12.57-1.15-25.18-1.96-37.82-2.29-25.3-.59-50.64.06-75.88,2.03C50.5,14.57,25.3,17.94.29,22.65.29,22.65,0,21.38,0,21.38h0Z"/>
    <g>
      <path class="cls-1" d="m30.04,26.64c5.57,0,9.7,1.45,12.38,4.35,2.68,2.9,4.02,6.81,4.02,11.73,0,7-2.04,12.6-6.12,16.81-4.08,4.21-9.78,6.31-17.11,6.31h-5.5l-2.34,19.02H2.57l7.15-58.22h20.33Zm-6.24,27.63c2.73,0,4.92-.93,6.56-2.79,1.64-1.86,2.46-4.29,2.46-7.3,0-1.97-.57-3.46-1.72-4.47-1.15-1.01-2.6-1.52-4.35-1.52h-5.66l-1.97,16.07h4.68Z"/>
      <path class="cls-1" d="m64.59,50.34c3.22-4.21,7.05-6.31,11.48-6.31l-1.72,13.61c-3.12-1.09-5.81-.51-8.09,1.75-2.28,2.26-3.73,5.84-4.34,10.75l-1.86,14.72h-12.14l5.08-40.1h12.14l-.7,5.53.16.05Z"/>
      <path class="cls-1" d="m98.1,44.02c5.25,0,9.42,1.5,12.5,4.51,3.09,3.01,4.63,7.22,4.63,12.63,0,7-1.9,12.82-5.7,17.47-3.8,4.65-9.33,6.97-16.6,6.97-5.14,0-9.25-1.52-12.34-4.55-3.09-3.03-4.63-7.26-4.63-12.67,0-6.78,2-12.53,5.99-17.26,3.99-4.73,9.37-7.09,16.15-7.09Zm-.98,10.99c-2.62,0-4.73,1.29-6.31,3.85-1.59,2.57-2.38,5.52-2.38,8.86,0,2.35.52,4.09,1.56,5.21,1.04,1.12,2.32,1.68,3.85,1.68,2.68,0,4.85-1.26,6.52-3.77,1.67-2.51,2.5-5.47,2.5-8.86,0-4.65-1.91-6.97-5.74-6.97Z"/>
      <path class="cls-1" d="m150.89,24.51h12.39l-7.37,60.35h-12.39l.8-6.51-.16-.05c-3.11,4.87-7.02,7.3-11.71,7.3-4.15,0-7.36-1.53-9.63-4.59-2.27-3.06-3.4-7-3.4-11.81,0-7.11,1.83-13.09,5.48-17.96,3.66-4.87,8.1-7.3,13.34-7.3,4.09,0,7.31,1.26,9.66,3.77l.16-.02,2.83-23.18Zm-14.5,50.18c2.35,0,4.59-1.5,6.72-4.51,2.13-3,3.5-7.05,4.1-12.14v-.16c-1.75-1.97-3.99-2.95-6.72-2.95-2.57,0-4.66,1.39-6.27,4.18-1.61,2.79-2.42,5.82-2.42,9.1,0,1.97.41,3.54,1.23,4.71.82,1.18,1.94,1.76,3.36,1.76Z"/>
      <path class="cls-1" d="m192.89,44.76h12.38l-4.92,40.1h-12.38l.82-6.56h-.16c-3.12,4.87-6.97,7.3-11.56,7.3-4.21,0-7.45-1.53-9.72-4.59-2.27-3.06-3.4-7-3.4-11.81,0-7.11,1.85-13.09,5.54-17.96,3.69-4.87,8.16-7.3,13.41-7.3,4.1,0,7.3,1.23,9.59,3.69h.08l.33-2.87Zm-11.97,29.93c2.35,0,4.58-1.5,6.68-4.51,2.1-3,3.46-7.05,4.06-12.14v-.08c-1.86-2.02-4.07-3.03-6.64-3.03s-4.59,1.41-6.23,4.22c-1.64,2.82-2.46,5.84-2.46,9.06,0,1.97.41,3.54,1.23,4.71.82,1.18,1.94,1.76,3.36,1.76Z"/>
      <path class="cls-1" d="m237.07,43.94c4.18,0,7.43,1.56,9.75,4.67s3.47,7.13,3.47,12.05c0,7.54-2.01,13.6-6.02,18.16-4.01,4.57-9.81,6.85-17.4,6.85-6.6,0-12.44-1.42-17.52-4.26l6.99-56.92h11.98l-3.38,26.09h.17c3.4-4.44,7.39-6.65,11.96-6.65Zm-10.68,30.75c3.61,0,6.44-1.3,8.47-3.9,2.03-2.6,3.05-5.75,3.05-9.47,0-1.8-.43-3.31-1.29-4.51-.86-1.2-1.99-1.8-3.38-1.8-2.39,0-4.62,1.37-6.68,4.12-2.06,2.75-3.45,6.51-4.17,11.3l-.48,3.74c1.67.35,3.17.53,4.5.53Z"/>
      <path class="cls-1" d="m271.07,50.34c3.22-4.21,7.05-6.31,11.48-6.31l-1.72,13.61c-3.12-1.09-5.81-.51-8.09,1.75-2.28,2.26-3.73,5.84-4.34,10.75l-1.86,14.72h-12.14l5.08-40.1h12.14l-.7,5.53.16.05Z"/>
      <path class="cls-1" d="m288.41,44.76h12.14l-5.08,40.1h-12.14l5.08-40.1Zm7.72-19.43c2.19,0,3.96.66,5.33,1.97,1.37,1.31,2.05,3.01,2.05,5.08s-.71,3.88-2.13,5.25c-1.42,1.37-3.25,2.05-5.49,2.05s-3.89-.67-5.29-2.01c-1.39-1.34-2.09-3.02-2.09-5.04,0-2.13.71-3.88,2.13-5.25,1.42-1.37,3.25-2.05,5.49-2.05Z"/>
    </g>
  </g>
</svg>